<svg xmlns="http://www.w3.org/2000/svg" xmlns:xlink="http://www.w3.org/1999/xlink" width="4000" height="4000"><defs><circle id="a" cx="2000" cy="2000" r="1468.332"/></defs><use fill="#37DBFF" overflow="visible" xlink:href="#a"/><clipPath id="b"><use overflow="visible" xlink:href="#a"/></clipPath><path fill="#FFF" d="M207.935 1855h666.668c22.143 0 33.859-27.181 18.555-43.519-13.208-14.099-33.883-20.169-58.458-14.057-7.108-55.54-50.121-98.212-102.142-98.212-22.473 0-43.308 7.996-60.277 21.59-13.857-77.204-75.247-135.397-148.889-135.397-73.74 0-135.163 58.303-148.955 135.615-22.21-16.539-48.975-26.171-77.737-26.171-62.094 0-114.697 30.912-132.916 101.452-7.655 29.641 14.13 58.699 44.151 58.699zM2760.358 1560h1056.168c35.079 0 53.642-43.061 29.394-68.944-20.924-22.337-53.678-31.953-92.609-22.27-11.263-87.989-79.404-155.593-161.819-155.593-35.602 0-68.61 12.668-95.493 34.205-21.953-122.31-119.209-214.502-235.877-214.502-116.822 0-214.132 92.365-235.981 214.848-35.187-26.202-77.588-41.461-123.154-41.461-98.372 0-181.708 48.972-210.571 160.724-12.131 46.958 22.381 92.993 69.942 92.993z" clip-path="url(#b)"/><g><path fill="#FF3B6A" d="M3372.795 2079.971s-183.555-43.79-292.841 182.281c-109.286 226.072 67.5 557.588-771.429 406.295-838.928-151.295-182.535-1054.787 1064.27-588.576z"/><path fill="#231F20" d="M3024.954 2222.252c67.458-139.545 163.198-176.256 226.614-183.926-973.682-305.178-1543.663 235.547-1234.9 508.179 58.94 35.563 137.364 64.099 236.857 82.042 838.929 151.294 662.143-180.223 771.429-406.295z" opacity=".3"/><path fill="#231F20" d="M2662.949 2726.846c-96.968 0-215.314-12.891-357.974-38.619-211.155-38.08-347.319-126.797-383.406-249.805-28.728-97.914 11.348-206.664 109.948-298.369 117.078-108.887 299.861-181.523 514.674-204.521 252.982-27.081 541.25 16.386 833.605 125.703 9.897 3.701 15.207 14.463 12.127 24.57-3.076 10.088-13.473 16.06-23.729 13.629-7.312-1.671-169.844-36.143-270.236 171.523-22.516 46.576-32.588 99.54-42.33 150.756-18.422 96.875-37.475 197.051-140.736 255.156-59.249 33.345-141.804 49.977-251.943 49.977zm33.703-759.151c-49.9 0-98.686 2.524-146.203 7.612-206.277 22.085-380.896 90.992-491.689 194.039-87.1 81.005-123.112 174.975-98.809 257.816 31.602 107.715 156.655 186.451 352.124 221.699 290.991 52.48 481.759 50.234 583.2-6.85 87.059-48.99 103.574-135.831 121.06-227.773 10.226-53.766 20.798-109.361 45.612-160.693 59.657-123.404 141.595-169.488 199.825-186.416 2.57-.748 5.114-1.445 7.634-2.096-198.208-64.374-392.56-97.338-572.754-97.338z"/><path fill="#FF3B6A" d="M3589.518 2172.788s-376.35-282.25-1248.85-50.65c0 0-116.299-55-50.15-304.049 0-.001 924.65-172.951 1299 354.699z"/><path fill="#231F20" d="M3589.518 2172.788s-376.35-282.25-1248.85-50.65c0 0-116.299-55-50.15-304.049 0 0 116.196-2.753 242.339 108.545 42.509 37.506 98.718 55.513 155.054 49.192 199.919-22.434 666.89-44.443 901.607 196.962z" opacity=".3"/><path fill="#FFF" d="M2305.518 1868.088s827.155-154.708 1233.53 274.966c33.966 17.387 50.47 29.733 50.47 29.733-374.35-527.65-1299-354.7-1299-354.7-32.512 122.408-20.943 197.916-.777 243.08-8.126-45.351-6.861-107.846 15.777-193.079z" opacity=".7"/><path fill="#231F20" d="M3589.51 2192.797c-4.203 0-8.422-1.318-11.996-3.998-.893-.664-94.846-69.293-292.484-109.239-182.84-36.942-494.197-56.206-939.229 61.919-4.566 1.217-9.412.771-13.68-1.25-5.366-2.533-130.583-65.127-60.908-327.27 1.98-7.456 8.072-13.105 15.652-14.521 2.338-.44 236.986-43.472 514.404-20.801 163.461 13.364 309.826 46.557 435.026 98.667 157.605 65.591 281.931 161.455 369.529 284.921 5.7 8.037 4.702 19.023-2.356 25.898-3.857 3.76-8.896 5.674-13.958 5.674zm-609.493-181.553c130.11 0 235.405 13.223 316.27 29.79 92.815 19.009 163.304 43.896 213.038 65.733-194.385-204.62-487.433-270.855-710.398-289.19-236.182-19.419-440.703 9.717-492.238 18.061-46.006 186.064 17.707 250.171 37.341 264.937 254.622-66.855 466.372-89.331 635.987-89.331z"/><path fill="#FF3B6A" d="M1042.097 2204.998s30.942 501.896-113.1 832.969c0 0 445.873 245.256 679.665-314.516 0 0-328.708-20.708-566.565-518.453z"/><path fill="#231F20" d="M1608.662 2723.451s-289.241-18.232-521.411-431.342c5.246 141.486 3.4 377.303-48.41 585.367-19.435 78.047 33.163 156.17 113.063 165.388 83.809 9.669 191.288 1.036 293.111-68.735 59.639-56.094 116.041-136.692 163.647-250.678z" opacity=".3"/><path fill="#231F20" d="M1153.044 3111.645c-129.604 0-228.167-53.115-233.687-56.152-9.05-4.98-12.822-16.029-8.701-25.503 140.5-322.93 111.785-818.789 111.479-823.76-.59-9.556 5.674-18.188 14.942-20.591 9.265-2.406 18.938 2.1 23.064 10.737 120.009 251.134 263.261 375.654 362.302 435.89 106.941 65.039 186.736 71.176 187.529 71.23 6.433.438 12.288 3.954 15.676 9.442 3.389 5.483 3.953 12.271 1.467 18.224-78.364 187.631-188.807 307.471-328.254 356.195-50.646 17.696-100.162 24.288-145.817 24.288zm-198.217-83.432c46.399 20.703 185.825 72.23 331.262 21.234 122.261-42.881 221.052-147.139 293.899-310.059-34.387-6.787-98.23-24.701-175.73-71.377-93.293-56.182-223.51-165.791-339.343-374.971 1.933 156.495-7.891 486.013-110.088 735.173z"/><path fill="#FA9B27" d="M1195.319 2582.588l-5.6-7.1s-113.35-112.9-374.75-169.65c0 0-48.75 11.75-83.05-24.1 0 0-51.15 61.149-105.75-25.851-6.7-10.649-13.45-23.5-20.15-38.999-72.85-168.251 120.8-475.601 365.9-268.75 43.9 37.049 90.2 71.398 140.05 100.049 25.8 14.801 54.95 34.601 80.95 60.4 73.15 72.151 121.699 190.751 2.4 374.001z"/><path fill="#FFF" d="M870.469 2419.288c-17.7-4.751-36.2-9.25-55.5-13.45 0 0-48.75 11.75-83.05-24.1 0 0-64.45 77.05-125.9-64.85-72.75-168.051 120.3-474.801 364.95-269.551 16.9 36.101 28.649 75.15 32.55 116.35 20.899 220.151-133.05 255.601-133.05 255.601z"/><path fill="#231F20" d="M1195.319 2582.588l-5.6-7.1s-113.35-112.9-374.75-169.65c0 0-48.75 11.75-83.05-24.1 0 0-51.15 61.149-105.75-25.851 29.9 8.25 56.05 6.851 53.9-6.199-4.8-29.7 5.8-64.95 5.8-64.95 8.735 33.383 26.318 51.219 44.981 60.449 26.263 12.986 56.549-6.933 56.183-36.229-.351-28.061 10.236-49.671 10.236-49.671 3.75 51.2 28.4 77.45 28.4 77.45 113.55 15 111.95-74.5 111.95-74.5s22 137.15 67.85 102.75c45.85-34.45 5.55-137 5.55-137s116.3-43.5 181.9-19.4c73.15 72.151 121.699 190.751 2.4 374.001z" opacity=".3"/><path fill="#231F20" d="M1195.31 2602.611c-6.13 0-11.941-2.816-15.742-7.666l-4.709-6.011c-10.139-9.497-122.097-110.155-360.232-162.71-13.271 2.125-50.107 5.166-82.585-18.021-13.054 9.096-31.533 16.752-52.554 13.715-35.235-5.102-66.123-37.764-91.814-97.074-44.526-102.799.394-251.002 98.086-323.629 88.381-65.698 197.375-54.169 299.048 31.636 48.042 40.547 92.893 72.593 137.114 97.97 85.955 49.32 140.879 114.784 158.833 189.316 19.589 81.313-3.518 173.295-68.682 273.389-3.521 5.409-9.436 8.783-15.887 9.066-.292.015-.585.019-.876.019zm-380.312-216.772c1.421 0 2.837.147 4.202.44 219.604 47.704 336.624 133.783 372.585 164.189 48.816-82.057 65.662-156.299 50.083-220.963-15.533-64.482-62.588-119.658-139.854-163.988-46.331-26.588-93.108-59.986-143.008-102.101-87.542-73.876-176.108-84.565-249.382-30.103-82.458 61.304-122.292 190.103-85.247 275.631 19.16 44.232 40.681 70.283 60.603 73.35 17.419 2.665 31.567-13.375 31.707-13.535 3.689-4.259 9.063-6.826 14.69-6.964 5.709-.166 11.115 2.036 15.004 6.108 25.616 26.813 62.446 18.805 63.997 18.453 1.497-.34 3.06-.517 4.62-.517z"/><path fill="#231F20" d="M807.117 2387.424c-.382.164-.253.107-.167.062l.296-.156.808-.456c.582-.328 1.183-.74 1.793-1.148 1.216-.834 2.382-1.791 3.49-2.787 2.208-2.012 4.042-4.273 5.433-6.699 1.388-2.435 2.557-4.957 3.123-7.82.776-2.769.857-5.906.929-9.119v-.002l.249-3.154c.838-10.62 10.126-18.553 20.746-17.715 2.499.197 4.907.898 7.029 1.938.7.345 2.553 1.081 3.909 1.599l4.548 1.642c3.075 1.054 6.203 1.945 9.31 2.795 6.228 1.614 12.438 2.63 18.318 2.937 11.965.535 21.534-2.055 29.056-9.75 3.759-3.867 6.997-9.092 9.396-15.203 1.437-2.905 2.114-6.326 3.248-9.536.684-3.418 1.614-6.784 2.155-10.342 2.637-14.163 3.809-29.229 6.833-45.2 7.769 14.253 11.967 29.824 13.118 46.271.358 4.1.032 8.311.05 12.518-.507 4.261-.544 8.531-1.568 12.898-1.424 8.688-4.542 17.736-10.021 26.088-5.371 8.365-13.376 15.795-22.573 20.462-9.169 4.808-18.999 7.067-28.385 7.849-9.423.816-18.547.242-27.314-1.193-4.392-.691-8.689-1.685-12.958-2.793-2.13-.576-4.253-1.201-6.371-1.909-2.248-.771-3.997-1.338-6.815-2.5l28.022-18.931v.008c.025 6.433-.321 13.024-2.002 19.631-1.446 6.6-4.18 13.064-7.637 18.955-3.466 5.928-7.835 11.226-12.761 15.73-2.472 2.25-5.063 4.343-7.826 6.25-1.392.947-2.799 1.877-4.313 2.754-.72.441-1.549.881-2.353 1.315l-1.315.674-1.803.84-15.677-36.803z"/><path fill="#231F20" d="M831.605 2375.246c-1.361-1.071-1.62-1.455-2.358-2.143-.632-.628-1.086-1.167-1.631-1.756-1.094-1.164-1.931-2.277-2.869-3.413-1.755-2.272-3.43-4.509-4.876-6.807-3.034-4.538-5.509-9.194-7.781-13.86-4.479-9.35-7.651-18.91-10.038-28.432-2.357-9.539-3.695-19.102-4.477-28.541-.426-4.711-.414-9.457-.621-14.102l.323-13.939 4.591 13.012c1.823 4.225 3.407 8.457 5.387 12.518 3.885 8.143 8.184 15.93 13.133 23.066 4.966 7.111 10.387 13.677 16.313 19.263 2.972 2.765 5.999 5.384 9.129 7.539 1.527 1.147 3.12 2.087 4.625 2.983.749.389 1.527.881 2.206 1.145.332.137.725.354.992.426.168-.003.79.334.365-.091l-22.413 33.132zM718.148 2396.221c-2.157-2.7-3.39-4.644-4.876-6.919-1.426-2.192-2.741-4.399-4.028-6.599-2.567-4.404-4.875-8.892-7.071-13.385-4.318-9.035-7.865-18.332-10.645-27.751-2.85-9.382-4.72-19.004-5.694-28.548-1.194-9.502-.75-19.094.013-28.266 2.566 8.959 5.387 17.57 9.607 25.539 4.004 8.006 8.667 15.521 14.02 22.446 5.28 6.95 11.046 13.415 17.231 19.312 3.127 2.922 6.278 5.754 9.537 8.377 1.63 1.309 3.254 2.592 4.898 3.781 1.55 1.128 3.457 2.5 4.549 3.003l-27.541 29.01z"/><path fill="#FA9B27" d="M3234.219 3102.238c-55.5 63.799-129.701 69.5-196.801 54.899-43.4-9.45-83.799-27.351-114.3-43.55-33.749-18-55.3-33.85-55.3-33.85-62.7 2.399-94.85-9.65-94.85-9.65-.2.15-.451.35-.65.5-60.899 47.45-119.55 85.3-174.8 115.449-2.351 1.301-4.75 2.601-7.101 3.851-171 91.8-307.899 110-370.399 113.101-.45 0-.899.05-1.3.05-23 1.1-35.551.101-35.551.101.801.35 1.601.699 2.4 1.049 0 0 .05 0 .15.051 65.65 28.699 74.449 119.25 15.15 159.551-34 23.148-69.9 32.549-104.25 33.849-95.15 3.7-178.65-54.649-178.65-54.649-316.8 27.25-377.7-146.1-386.1-250.199-3.5-42.15 1.7-72.951 1.95-74.401v-.05s-.05-.051-.15-.15c-52.4-57.649-97.7-112.549-136.85-164.65-57.45-76.299-101.65-146.648-135.55-210.799-51.15-96.75-78.8-179.4-92.65-247.301-14.05-68.549-14.05-121.999-10.05-159.65 4.7-43.649 14.8-66.049 14.8-66.049s60.4-171.801 424.85-265.301c89.65-23 197.7-41.25 327.8-51.05 658.95-49.6 911.8 342.101 961.1 407.95 0 0 .05.05.101.15 0 .05.05.1.1.149.051.101.15.2.199.3 18.751 24.75 52.852 50.601 88.051 73.25 58.301 37.4 119.65 66 119.65 66-1.701 36.051-12.35 60.9-22 76.301-8.65 13.8-16.551 20.1-16.551 20.1 23 102.35-32.05 140.45-33.449 141.45h-.051s.051.05.201.2c1.1.8 6.1 4.6 14 10.899v.05c60.65 48.449 290.7 244.2 196.851 352.049z"/><path fill="#FFF" d="M3056.668 2597.588c23.301 103.7-33.5 141.45-33.5 141.45-129.65-73.95-64.299-177.851-64.299-177.851-6.201-88.25-67.701-193.049-71.551-199.55 49.551 65.8 207.9 139.55 207.9 139.55-3.198 68.301-38.55 96.401-38.55 96.401zM3234.219 3102.238c-131 150.6-366.4-22.5-366.4-22.5 264.6-12.75 171.1-324.4 169.551-329.551 60.648 48.451 290.698 244.202 196.849 352.051zM2200.869 3463.789c-128.301 87.299-282.9-20.801-282.9-20.801 140.6-36.75 145.25-132.75 144.8-151.2-.05-2.001-.149-3.101-.149-3.101 15.549 3.501 30.149 6.2 43.5 8.301h.199c47.75 7.549 79.25 7.199 79.25 7.199s.05 0 .15.051c65.65 28.7 74.449 119.25 15.15 159.551z"/><path fill="#FFF" d="M2772.969 3070.088c-60.051 47.701-119.2 85.75-175.45 115.949-2.351 1.301-4.75 2.601-7.101 3.851-167.149 88.351-308 108.551-370.399 113.101-.45 0-.899.05-1.3.05-21.35 1.499-33.15 1.149-33.15 1.149-27.4-1.949-53.9-4.4-79.449-7.199-14.75-1.601-29.201-3.351-43.351-5.2-367.1-48.101-528.95-173.45-528.95-173.45-496.701-546.449-360.45-848.6-360.45-848.6s60.4-171.801 424.85-265.301l644.25 330.851s-7.851 181.993 143.199 300.893c151.051 118.95 163.101 226.607 163.101 226.607 44.2 179.449 224.2 207.299 224.2 207.299z"/><path fill="#231F20" d="M2315.668 2377.388c-32.1-12-51.35-7.999-51.35-7.999-68.035 159.637-230.719 222.291-331.61 246.322-41.436 9.871-65.778 52.262-54.102 93.225 49.984 175.359-58.637 271.152-58.637 271.152s-21.45-39.6-113.6-72.85c-42.976-15.484-73.642-32.131-94.132-45.488-17.478-11.395-40.56-5.783-51.963 11.688-41.027 62.854-114.325 77.763-163.455 80.1-57.45-76.299-101.65-146.648-135.55-210.799 2.542-19.851 7.084-38.67 12.367-55.576 13.894-44.466-.655-93.211-37.254-122.033-29.47-23.207-51.598-47.892-67.762-69.691-14.05-68.549-14.05-121.999-10.05-159.65 191.55-35.199 598.9-103.249 787.8-83.149 247.849 26.348 365.698 121.749 369.298 124.748zM2772.969 3070.088c-.2.15-.451.35-.65.5-60.899 47.45-119.55 85.3-174.8 115.449-2.351 1.301-4.75 2.601-7.101 3.851-171 91.8-307.899 110-370.399 113.101-.45 0-.899.05-1.3.05-23 1.1-35.551.101-35.551.101.801.35 1.601.699 2.4 1.049 0 0 .05 0 .15.051 65.65 28.699 74.449 119.25 15.15 159.551-34 23.148-69.9 32.549-104.25 33.849 47.899-36.349 89.399-79.149 75.299-110.899-25.75-57.939-70.066-31.039-97.346-71.71-10.766-16.051-27.859-26.811-47.085-28.788-25.469-2.619-63.455-8.032-109.519-19.203 0 0 251.531 9.503 517.127-97.204 77.486-31.132 125.158-110.821 112.578-193.375-4.879-32.004-5.91-70.11 1.095-113.67.002-.003 31.352 171.947 224.202 207.297zM1783.769 3232.238s-155.45 17.299-251.9-39.449c-3.5-42.15 1.7-72.951 1.95-74.401 0 0 69.95 69.151 249.95 113.85zM2959.418 3060.488s-2.25 30.299-36.3 53.1c-33.749-18-55.3-33.85-55.3-33.85s20.901 2.4 91.6-19.25zM3234.219 3102.238c-55.5 63.799-129.701 69.5-196.801 54.899 46.5-15.7 96.666-17.725 142.2-77.399 62.122-81.414-149.35-332.801-156.249-340.5 1.1.8 6.1 4.6 14 10.899v.05c60.649 48.451 290.699 244.202 196.85 352.051zM2958.869 2561.188c-11.25-99.85-66.25-190.899-71.352-199.25 18.751 24.75 52.852 50.601 88.051 73.25 5.6 79.55-16.699 126-16.699 126zM3056.668 2597.588c23 102.35-32.05 140.45-33.449 141.45h-.051l-44.85-32.25s60.651-37.65 78.35-109.2z" opacity=".3"/><path fill="#231F20" d="M2087.705 3518.129c-82.322.006-153.699-41.123-174.966-54.662-150.704 11.742-261.65-20.084-329.802-94.596-81.221-88.813-74.358-208.725-70.225-244.047-204.69-226.749-327.495-439.313-365.02-631.871-27.7-142.148 3.11-221.283 7.063-230.6 7.219-19.381 116.353-279.742 769.768-328.907 271.541-20.449 507.366 30.279 701.007 150.708 154.85 96.305 238.621 211.66 270.157 255.088 2.86 3.941 5.329 7.34 7.425 10.143 45.69 61.084 199.008 132.949 200.551 133.666 7.359 3.428 11.916 10.962 11.535 19.072-2.572 54.639-24.108 87.227-36.833 101.885 12.69 69.234-8.022 111.377-25.173 133.135 54.17 43.555 210.581 178.336 222.512 291.318 3.538 33.496-5.336 62.739-26.377 86.919-59.255 68.101-146.958 85.763-253.617 51.108-64.586-20.986-116.932-54.834-133.959-66.543-41.563.986-69.987-4.184-84.535-7.803-238.318 183.418-442.51 222.417-538.108 229.879 11.675 15.941 19.014 35.078 20.972 55.957 3.848 41.034-14.077 79.297-47.947 102.338-41.018 27.911-84.045 37.813-124.428 37.813zm-169.714-95.16c4.087 0 8.091 1.25 11.46 3.607 1.418.986 145.042 99.02 260.182 20.674 21.642-14.727 33.09-39.229 30.621-65.541-2.485-26.524-18.439-48.658-42.678-59.205l-2.145-.918c-9.058-3.799-14.014-13.613-11.699-23.158 2.316-9.541 11.268-16.026 21.012-15.221 2.523.21 261.584 16.611 575.938-228.857 5.49-4.282 12.81-5.404 19.33-2.963.182.063 30.008 10.537 87.031 8.379 4.521-.152 8.973 1.191 12.617 3.871 2.197 1.617 222.164 160.327 339.492 25.484 13.641-15.675 19.129-34.137 16.775-56.441-12.3-116.67-222.65-276.059-224.775-277.656-5.188-3.896-8.162-10.073-7.975-16.563.188-6.489 3.512-12.48 8.914-16.074 1.617-1.152 44.729-32.827 25.044-120.391-1.679-7.48 1.063-15.264 7.063-20.039.891-.752 24.17-20.82 29.963-68.711-39.514-19.389-159.25-81.309-203.08-139.907-2.188-2.925-4.769-6.475-7.759-10.596-261.692-360.356-653.341-410.639-935.796-389.414-332.483 25.02-515.02 106.572-609.602 170.576-101.385 68.614-125.522 131.974-125.754 132.607-.154.415-.364.947-.552 1.372-.53 1.23-31.455 74.844-3.792 211.816 25.854 128.008 109.431 338.643 360.781 615.171 4.165 4.581 5.972 10.835 4.895 16.934-.222 1.279-21.793 132.065 59.18 220.317 60.398 65.826 162.549 93.057 303.594 80.918.572-.048 1.146-.071 1.715-.071z"/><path fill="#231F20" d="M2903.943 2350.578c5.057 8.662 8.947 16.668 12.976 25.098 4.023 8.307 7.518 16.832 10.986 25.335 3.356 8.555 6.614 17.129 9.599 25.796 2.832 8.73 5.711 17.414 8.082 26.271 4.924 17.627 8.865 35.533 11.361 53.611 2.703 18.027 3.064 36.443 1.936 54.492-5.785-17.275-11.07-34.129-17.514-50.581-6.268-16.46-12.76-32.698-20.389-48.435-3.563-7.952-7.614-15.706-11.58-23.443-3.947-7.754-8.086-15.395-12.32-22.966-4.314-7.532-8.777-14.956-13.206-22.344-4.4-7.271-9.28-14.792-13.623-21.272l33.692-21.562zM3011.33 2755.158c-3.589-2.949-6.789-6.428-9.902-10.023-3.08-3.643-6.059-7.428-8.842-11.473-2.859-3.94-5.508-8.172-7.971-12.656-2.432-4.526-4.592-9.419-6.313-14.914 5.758-.003 11.073.593 16.119 1.56 5.016 1.006 9.846 2.267 14.463 3.815 4.694 1.445 9.193 3.154 13.592 5.003 4.364 1.892 8.642 3.907 12.529 6.448l-23.675 32.24zM2770.724 3089.98c-4.556-.574-7.817-1.15-11.567-1.863-3.637-.681-7.205-1.449-10.733-2.341-7.067-1.741-14.046-3.657-20.886-5.974-13.721-4.492-27.087-9.954-39.976-16.412-25.799-12.836-49.718-29.648-70.331-49.782-20.641-20.144-37.431-43.945-49.918-69.401-11.921-25.748-18.902-53.567-18.519-81.419 12.168 25.044 24.054 48.589 38.315 70.315 7.387 10.676 14.88 21.145 23.566 30.598 8.709 9.406 17.906 18.26 27.732 26.34 19.868 15.916 41.824 28.997 65.161 39.041 11.669 5.002 23.651 9.295 35.787 12.902 6.075 1.777 12.177 3.443 18.292 4.827 3.057.703 6.113 1.354 9.129 1.963 2.896.596 6.316 1.167 8.479 1.465l-4.531 39.741zM2866.576 3059.79c6.895.481 14.795.71 22.328 1.077 7.628.273 15.286.346 23.006.414 15.539.164 30.619-1.13 47.509-.814-6.079 5.867-13.015 10.637-20.257 14.604-7.264 3.902-14.803 7.269-22.436 10.371-7.64 3.096-15.43 5.768-23.312 8.184-3.94 1.224-7.903 2.4-11.925 3.359-4.079 1.012-7.904 1.976-12.443 2.73l-2.47-39.925zM2185.555 3324.166c-11.063-.699-21.412-2.076-32.019-3.904-10.534-1.81-21.002-4.061-31.39-6.813-10.389-2.736-20.684-5.879-30.75-9.88-10.038-3.987-19.901-8.765-28.764-14.888 10.744.64 21.137.484 31.449.35 10.294-.117 20.586-.718 30.787-1.15l60.686-3.715v40zM1548.926 3105.229c.769.767 2.972 2.868 4.716 4.396l5.8 5c4.087 3.3 8.239 6.557 12.575 9.755 4.196 3.298 8.873 6.167 13.231 9.365l13.779 8.916c18.632 11.675 38.442 22.041 58.692 31.738l15.286 7.181 15.544 6.771c5.158 2.342 10.432 4.42 15.737 6.441 5.274 2.111 10.551 4.24 15.8 6.508 10.577 4.307 21.228 8.577 31.8 13.408 10.665 4.527 21.349 9.227 31.908 15.045-11.928.605-23.729.098-35.55-.584-11.678-1.304-23.375-2.832-34.961-4.956-11.488-2.513-23.02-4.987-34.325-8.394l-17.044-4.917c-5.683-1.672-11.257-3.718-16.867-5.653-22.409-7.867-44.543-17.076-65.737-28.785l-15.744-9.165c-5.127-3.372-10.296-6.56-15.292-10.249-5.064-3.504-9.964-7.404-14.823-11.401-2.42-2.126-4.822-4.149-7.189-6.438-2.478-2.406-4.466-4.279-7.569-7.793l30.233-26.189zM1911.812 3423.945l8.784-2.303 9.388-2.543c6.315-1.704 12.629-3.577 18.955-5.628 6.331-2.048 12.438-4.528 18.918-6.938 6.398-2.539 12.754-5.354 20.044-8.566-1.477 7.754-5.042 14.922-9.396 21.406-4.419 6.426-9.786 12.055-15.428 17.326-5.698 5.181-11.773 9.924-18.151 14.197-3.223 2.064-6.462 4.138-9.867 5.941-3.471 1.917-6.615 3.482-10.892 5.149l-12.355-38.041z"/><path fill="#FA9B27" d="M1234.318 1289.188s-2.2-4.5-6.3-12.55c-29.399-58.1-157.25-300.049-265.949-345 0 0 108.65-84.35 254.05-11.899 66.85 33.3 141.45 99.75 216.85 222.7 0-.001 33.4 168.149-198.651 146.749z"/><path fill="#231F20" d="M1234.318 1289.188s-2.2-4.5-6.3-12.55c71.851-131.4 28.101-273.05-11.899-356.899 66.85 33.3 141.45 99.75 216.85 222.7 0-.001 33.4 168.149-198.651 146.749z" opacity=".3"/><path fill="#231F20" d="M1273.173 1311.076c-12.919 0-26.486-.654-40.698-1.965-6.973-.643-13.103-4.888-16.157-11.189-1.453-2.998-146.595-300.131-261.88-347.807-6.587-2.722-11.226-8.745-12.178-15.809-.955-7.063 1.924-14.099 7.551-18.469 3.266-2.54 81.286-61.873 195.085-41.13 110.103 20.059 212.769 106.619 305.144 257.27 1.238 2.02 2.107 4.241 2.565 6.563.564 2.835 13.254 70.032-32.335 120.62-31.11 34.519-80.487 51.916-147.097 51.916zm-25.961-40.906c68.103 4.643 116.221-7.954 143.088-37.505 27.554-30.308 24.924-71.55 23.516-83.232-85.336-137.999-177.935-217.132-275.264-235.225-59.194-11.004-107.554 3.987-136.112 17.236 108.209 75.186 219.518 288.423 244.772 338.726z"/><path fill="#FF8DC1" d="M1234.318 1289.188l-198.15 340.1-12.5 21.5s-4.2-5.95-10.95-17.299c0 0 0-.05-.05-.101-40.8-68.3-175.2-331.5-65.25-679.2 5.9-18.8 21.65-31.3 39.3-34.45 11.6-2.15 24-.25 35.05 6.5 52.801 32.4 134.051 121.3 212.55 362.95z"/><path fill="#231F20" d="M1234.318 1289.188l-198.15 340.1c-14.7 2.75-23.45 4.2-23.45 4.2s0-.05-.05-.101c-1.738-3.959-54.357-125.398 45.819-261.936 6.188-8.435 7.452-19.563 2.817-28.942-11.358-22.986-27.124-71.312 1.164-128.672 0 0-48.5-38.55-16.35-130.95 20.399-58.6-12.85-126.55-59.4-163.149 11.6-2.15 24-.25 35.05 6.5 52.801 32.4 134.051 121.3 212.55 362.95z" opacity=".3"/><path fill="#FA9B27" d="M1225.668 1263.238c-40.6 26.9-93.35 84.3-93.35 84.3-4.9-2.35-9.35-4.9-13.35-7.55-70.1-46.5-9.351-132.55-9.351-132.55-47.45-35.35-33.75-97.25-33.75-97.25 22.1-10.2 41.35-11 56.4-8.3 21.6 3.799 34.5 14.65 34.5 14.65 19.552 38.55 58.901 146.7 58.901 146.7z"/><path fill="#231F20" d="M1132.305 1362.553c-2.214 0-4.448-.491-6.536-1.502-28.452-13.786-46.221-33.728-52.815-59.27-9.292-36.003 7.006-72.949 17.185-91.272-42.1-41.076-29.536-100.834-28.94-103.542 1.011-4.575 4.099-8.413 8.35-10.381 61.804-28.589 105.068 6.958 106.882 8.484 1.538 1.296 2.797 2.888 3.708 4.683 19.736 38.892 58.01 143.904 59.631 148.354 2.371 6.518-.034 13.811-5.818 17.639-38.594 25.538-90.081 81.392-90.596 81.954-2.909 3.168-6.947 4.853-11.051 4.853zm-42.874-241.77c-1.548 15.52-1.396 51.855 29.133 74.624 6.516 4.86 7.976 14.028 3.291 20.671-.278.396-29.194 42.302-19.827 78.306 3.642 14.001 12.61 25.344 27.297 34.456 14.963-15.64 48.088-49.065 78.284-71.262-10.093-27.283-37.032-99.082-52.666-131.116-7.306-4.895-31.608-18.182-65.512-5.679z"/><path fill="#231F20" d="M1225.668 1263.238c-40.6 26.9-93.35 84.3-93.35 84.3-4.9-2.35-9.35-4.9-13.35-7.55 49.25-89.15 34.2-179.05 13.3-238.1 21.6 3.799 34.5 14.65 34.5 14.65 19.551 38.55 58.9 146.7 58.9 146.7z" opacity=".3"/><path fill="#231F20" d="M1023.66 1670.78c-6.489 0-12.598-3.154-16.353-8.491-2.17-3.081-53.513-76.894-89.139-202.136-32.781-115.24-57.629-297.61 10.162-512 6.577-20.799 22.119-37.125 42.642-44.786 20.422-7.634 42.747-5.507 61.24 5.825 56.794 34.807 141.262 127.918 221.124 373.826 1.76 5.415 1.127 11.323-1.741 16.245l-210.652 361.585c-3.428 5.884-9.617 9.619-16.423 9.912-.287.015-.575.02-.86.02zm-27.964-731.894c-3.599 0-7.227.647-10.733 1.956-8.914 3.328-15.654 10.388-18.494 19.372-64.565 204.185-41.232 377.732-10.29 487.364 21.477 76.093 49.494 132.861 67.082 164.16l189.253-324.851c-75.185-227.928-150.769-312.678-201.206-343.586-4.772-2.928-10.158-4.415-15.612-4.415z"/><path fill="#FF3B6A" d="M1074.128 2338.082s29.041 231.67 444.755 261.67c415.714 30 715.714-156.428 788.571-381.428 72.857-225-95.157-35.357-95.157-35.357s-427.925 438.801-1138.169 155.115z"/><path fill="#231F20" d="M2311.308 2108.338c-2.96 13.764-7.462 30.248-13.854 49.986-72.856 225-372.857 411.428-788.571 381.428-270.844-19.545-377.533-124.682-419.016-195.594-5.248-2.029-10.46-3.968-15.739-6.076 0 0 29.041 231.67 444.755 261.67 415.714 30 715.714-156.428 788.571-381.428 26.357-81.392 21.183-108.508 3.854-109.986z" opacity=".3"/><path fill="#231F20" d="M1606.492 2622.943c-29.307 0-58.997-1.074-89.05-3.247-177.488-12.808-309.126-62.661-391.255-148.179-63.093-65.693-71.572-128.314-71.901-130.951-.882-7.021 2.017-13.984 7.617-18.312 5.601-4.331 13.074-5.37 19.646-2.749 360.002 143.799 644.133 95.352 819.094 29.391 185.11-69.785 290.793-173.359 297.063-179.615 40.51-45.654 95.659-95.835 129.229-76.626 25.314 14.463 25.186 52.657-.451 131.831-38.743 119.648-136.582 225.444-275.494 297.91-127.072 66.285-279.328 100.547-444.498 100.547zm-500.833-251.342c9.026 20.327 24.7 47.07 51.55 74.448 51.79 52.803 156.826 118.867 363.113 133.756 192.014 13.857 369.128-18.258 512.168-92.877 129.551-67.578 220.443-165.16 255.935-274.766 17.194-53.096 17.993-74.966 17.134-82.974-15.168 5.548-49.948 35.05-78.291 67.041-.212.239-.43.474-.652.704-4.494 4.608-112.343 113.729-309.97 188.671-115.876 43.946-238.635 66.797-364.866 67.921-145.105 1.284-294.883-26.255-446.121-81.924z"/><path fill="#FF3B6A" d="M1217.819 2949.039c62.15-51.451 48.2-102.852 79.299-221.801 17.4-66.65 58.05-103.301 90.4-122.701 25.35-15.148 45.65-19.699 45.65-19.699 62.8-31.2 120 25.65 120 25.65 21.45 426.401-335.349 338.551-335.349 338.551z"/><path fill="#231F20" d="M1217.819 2949.039c166.522-16.549 235.734-119.223 261.531-175.83 8.921-19.576 7.623-42.311-3.495-60.729-2.352-3.897-4.376-7.639-6.116-11.179-10.391-21.135-24.947-40-43.295-54.764-18.728-15.072-31.065-30.125-38.925-42 25.35-15.148 45.65-19.699 45.65-19.699 62.8-31.2 120 25.65 120 25.65 21.449 426.401-335.35 338.551-335.35 338.551z" opacity=".3"/><path fill="#FFF" d="M1332.118 2742.238c17.4-66.65 58.05-103.301 90.4-122.701 25.35-15.148 45.65-19.699 45.65-19.699 22.285-11.071 43.849-11.031 62.418-6.402-22.39-13.699-58.834-27.767-97.418-8.598 0 0-20.3 4.551-45.65 19.699-32.35 19.4-73 56.051-90.4 122.701-31.1 118.949-17.149 170.35-79.299 221.801 0 0 17.576 4.315 44.662 6.389 51.039-48.778 40.269-100.865 69.637-213.19z" opacity=".7"/><path fill="#231F20" d="M1290.933 2976.654c-43.538 0-75.093-7.504-77.903-8.197-7.336-1.807-13.027-7.594-14.714-14.957-1.684-7.367.926-15.054 6.746-19.873 37.661-31.167 42.832-60.355 53.132-118.51 4.658-26.309 9.941-56.129 19.553-92.921 31.416-120.243 130.997-151.606 148.557-156.25 73.914-35.024 138.238 27.628 140.962 30.333 3.533 3.51 5.627 8.213 5.878 13.184 7.212 143.529-26.56 247.182-100.375 308.075-58.189 48.003-128.875 59.116-181.836 59.116zm-31.87-41.67c46.231 4.137 127.227 2.188 188.462-48.477 62.017-51.309 90.947-141.006 86.042-266.68-13.877-11.303-51.774-36.816-91.494-17.074-1.418.703-2.916 1.234-4.458 1.592-3.813.883-93.723 22.92-121.167 127.959-9.207 35.244-14.341 64.223-18.867 89.789-7.981 45.059-14.278 80.592-38.518 112.891z"/><path fill="#231F20" d="M1488.519 2587.85c-2.559 3.22-5.516 7.497-8.304 11.309-2.791 3.975-5.527 8-8.249 12.061-5.321 8.179-10.634 16.426-15.411 24.941-9.697 16.945-18.424 34.496-24.834 52.738-1.391 4.588-3.138 9.153-4.408 13.785-1.112 4.639-2.725 9.289-3.477 13.996l-1.32 7.08-.663 3.618-.616 4.114c-.974 5.449-2.214 10.798-3.657 16.039-6.067 20.908-15.908 40.01-28.944 56.68 3.802-20.793 7.759-40.746 9.163-60.305.859-9.852.328-18.726.934-30.366.602-10.989 2.064-21.888 4.311-32.601 4.46-21.436 11.871-41.945 20.896-61.56 4.479-9.841 9.535-19.365 14.949-28.708 2.688-4.681 5.564-9.264 8.513-13.816 3.054-4.644 5.947-8.82 9.677-13.732l31.44 24.727z"/><path fill="#FF3B6A" d="M1831.168 2950.338c-6.15 18.6-11.2 29.75-11.2 29.75-21.45-108.199-75-108.199-201.45-188.55-126.4-80.351-99.65-191.8-99.65-191.8 15-36.4 53.6-31.051 53.6-31.051 48.75 5.45 89.5 15.301 123.35 28.501 203.2 79.1 160.301 277.65 135.35 353.15z"/><path fill="#231F20" d="M1831.168 2950.338c-6.15 18.6-11.2 29.75-11.2 29.75-21.45-108.199-75-108.199-201.45-188.55-126.4-80.351-99.65-191.8-99.65-191.8 15-36.4 53.6-31.051 53.6-31.051 48.75 5.45 89.5 15.301 123.35 28.501-3.641 15.319-10.361 33.925-22.709 52.569-21.845 32.987-15.284 76.883 15.671 101.523 58.444 46.524 133.409 120.464 142.388 199.058z" opacity=".3"/><path fill="#231F20" d="M1819.96 3000.111c-.766 0-1.538-.044-2.314-.132-8.628-1.001-15.625-7.46-17.312-15.981-14.534-73.402-43.394-89.604-113.12-128.735-22.896-12.851-48.848-27.417-79.417-46.846-136.912-87.021-109.592-208.222-108.362-213.339.241-1.007.559-1.988.952-2.945 16.443-39.926 55.745-45.805 74.515-43.301 131.145 14.654 220.483 62.285 265.522 141.568 73.144 128.759.85 291.137-2.263 297.987-3.271 7.198-10.434 11.724-18.201 11.724zm-281.918-394.272c-2.461 13.145-14.493 101.636 91.21 168.819 29.646 18.842 55.091 33.125 77.54 45.722 54.345 30.503 90.749 50.929 113.42 95.952 13.874-53.949 24.497-137.572-14.661-206.338-38.418-67.465-117.588-108.32-235.313-121.436-.178-.02-.359-.043-.538-.068-3.628-.41-22.864-1.577-31.658 17.349z"/><path fill="#231F20" d="M1539.429 2562.354c11.946 5.049 22.391 10.415 33.156 16.24 10.708 5.679 21.106 11.865 31.307 18.367 20.399 12.99 39.907 27.395 58.332 43.09 9.052 8.092 18.05 16.155 26.376 25.013 8.681 8.405 16.354 17.939 24.037 27.229 14.625 19.348 26.633 40.896 33.389 63.889-15.606-18.33-31.107-35.07-47.91-50.627-17.031-15.299-34.817-29.51-53.699-42.311-18.998-12.641-38.638-24.258-58.783-34.908-10.066-5.333-20.266-10.416-30.507-15.313-10.122-4.866-20.918-9.526-30.613-13.552l14.915-37.117z"/><path fill="#FF3B6A" d="M1653.869 2620.488c-43.9 75-135 6.4-135 6.4-94.3 17.8-129.4-23.801-141-69.501-1.6-6.3-2.5-12.649-2.7-18.851-1.95-46.449 32.35-88.499 80.25-96.349 108.1-17.7 171.25 24.399 196.9 75.6 17.8 35.551 17.5 75.451 1.55 102.701z"/><path fill="#231F20" d="M1653.869 2620.488c-43.9 75-135 6.4-135 6.4-94.3 17.8-129.4-23.801-141-69.501-1.6-6.3-2.5-12.649-2.7-18.851 8.542 12.075 22.918 25.914 46.78 35.787 18.258 7.555 39.406.122 48.225-17.561 2.271-4.553 5.08-9.309 8.545-13.976 0 0 124.9 103.75 173.601-25 17.799 35.552 17.499 75.452 1.549 102.702z" opacity=".3"/><path fill="#FFF" d="M1412.869 2567.388c-1.6-6.3-2.5-12.649-2.7-18.851-1.95-46.449 32.35-88.499 80.25-96.349 33.724-5.522 63.071-5.222 88.272-.644-31.704-12.797-72.535-17.664-123.272-9.356-47.9 7.85-82.2 49.899-80.25 96.349.2 6.201 1.1 12.551 2.7 18.851 8.76 34.511 30.94 66.663 81.874 72.685-26.83-13.413-40.459-37.411-46.874-62.685z" opacity=".7"/><path fill="#231F20" d="M1595.954 2675.526c-34.614 0-67.358-18.315-81.65-27.538-111.916 17.846-145.659-45.592-155.842-85.664-7.771-30.577-2.432-62.105 15.034-88.775 17.805-27.191 46.479-45.815 78.672-51.089 91.691-15.024 167.316 9.941 207.5 68.472 30.102 43.848 34.711 99.966 11.471 139.644-13.964 23.843-33.334 38.394-57.568 43.253-5.871 1.175-11.772 1.697-17.617 1.697zm-77.073-68.631c4.307 0 8.538 1.391 12.032 4.022 11.364 8.481 47.068 29.331 74.895 23.672 12.695-2.573 22.774-10.497 30.816-24.228 15.319-26.158 11.235-65.957-9.932-96.787-18.247-26.578-64.329-68.644-168.057-51.641-21.16 3.467-39.996 15.688-51.677 33.525-11.25 17.182-14.705 37.432-9.728 57.011 12.562 49.454 51.146 67.374 117.945 54.771 1.231-.234 2.471-.345 3.706-.345z"/><path fill="#231F20" d="M1505.189 2641.473c-2.009-2.537-3.036-4.258-4.332-6.326-1.242-1.978-2.349-3.965-3.459-5.939-2.17-3.968-4.13-7.972-5.939-12.002-3.611-8.057-6.486-16.324-8.67-24.661-2.233-8.308-3.718-16.729-4.349-25.098-.844-8.317-.424-16.657.264-24.658 2.632 7.69 5.462 15.059 9.34 21.875 3.665 6.86 7.969 13.245 12.728 19.131 4.708 5.903 9.826 11.36 15.302 16.263 2.737 2.445 5.528 4.777 8.371 6.936 1.434 1.055 2.848 2.117 4.277 3.059 1.332.895 3.039 2.037 3.854 2.269l-27.387 29.151z"/><g><path fill="#FA9B27" d="M2271.668 1644.288c22.75 105.4 26.5 180 23.95 256.85-2.1 63.15-14.249 124.15-35.149 181.149-65.4 179.15-216.451 319.201-409.7 364.65-399.95 94.001-819.35-52-883.3-233.85-14.55-41.3-23-79.649-27-114.85-10.851-95.4 11.1-167.95 33.95-214.75 3.25-6.7 6.3-13.55 9.1-20.45 16.95-41.101 25.75-85.25 24.75-129.851-7-316.5 176.55-452.45 266.95-500.099 29.4-15.5 48.95-21.65 48.95-21.65l-.05-.05c-72.3-97.2-37.75-186.35-37.75-186.35 138.75-47.5 249.55 49.05 265.8 64.2.25.2.45.4.6.6.75.65 1.2 1.101 1.4 1.3 0 .05.05.05.05.05-27.85-121.1 31.1-191.8 31.1-191.8 104.55 38.85 158.15 111 185.05 167.25 21.4 44.601 26 79.2 26 79.2 29.25-86.2 103.75-175.9 148.25-224.25 27.851-30.25 59.851-56.5 95.8-76.5 83.4-46.45 146.25-41.3 191.351.05h.05c1.5 1.4 3 2.8 4.45 4.25 59.95 59.6 87.05 185.35 88.35 338.2 2.798 323.601-52.952 456.701-52.952 456.701z"/></g><g><path fill="#FFF" d="M2260.469 2082.287c-65.4 179.15-216.451 319.201-409.7 364.65-399.95 94.001-819.35-52-883.3-233.85-53.95-153.25-24.3-265.5 6.95-329.6 3.25-6.7 6.3-13.55 9.1-20.45 26.85 43 90.65 106.5 224.65 75.65 195.55-45 129.65-401.8 242.15-445.2 112.5-43.4-24.2 351.149 241.85 453.35 244.6 94.001 481.749-237.199 568.3 135.45z"/></g><g><path fill="#FFF" d="M1251.354 1619.805c.856 9.53-9.656 15.814-17.556 10.415-16.187-11.063-41.35-22.94-64.737-11.896-38.572 18.214-48.384-86.898 18.214-73.393 49.689 10.076 61.743 48.861 64.079 74.874z"/></g><g><path fill="#FFF" d="M1674.799 1614.457c-.933 8.701 10.528 14.438 19.141 9.509 17.647-10.1 45.082-20.944 70.58-10.861 42.052 16.629 52.75-79.336-19.858-67.006-54.173 9.199-67.316 44.609-69.863 68.358z"/></g><g><path fill="#FF8DC1" d="M2276.719 1630.188c-3.15 9.5-5.051 14.1-5.051 14.1s-37.5-255.25-263.5-402.65c0 0 73-314.6 223.601-396.5h.05c1.5 1.4 3 2.8 4.45 4.25 59.95 59.6 87.05 185.35 88.35 338.2 2.299 263.6-34.301 400.8-47.9 442.6z"/></g><g opacity=".3"><path fill="#231F20" d="M1345.312 1967.074s8.572 71.927-39.643 99.178c-48.214 27.25-104.042 12.786-123.003-29.535 0 0-42.505 90.401 84.848 133.393 0 0 25.299 69.643 87.441 118.393 0 0-17.635 84.614 56.768 94.394 59.746 7.853 99.201-14.511 112.428-23.626 3.416-2.354 7.277-3.899 11.349-4.693 27.841-5.426 135.862-37.521 121.895-207.611-.765-9.305 1.996-18.519 7.631-25.962 10.765-14.216 26.477-41.937 21.018-77.714-1.744-11.424-15.432-16.604-24.331-9.232-28.451 23.566-87.561 64.535-144.436 54.088-78.75-14.464-74.822-88.392-82.947-130.714-8.126-42.324-89.018 9.641-89.018 9.641z"/></g><g opacity=".3"><path fill="#231F20" d="M2271.668 1644.288c22.75 105.4 26.5 180 23.95 256.85-2.1 63.15-14.249 124.15-35.149 181.149-65.4 179.15-216.451 319.201-409.7 364.65-399.95 94.001-819.35-52-883.3-233.85-14.55-41.3-23-79.649-27-114.85 56.7 104.5 200.75 263.1 558.3 295.649 0 0 20.5.973 52.133.63 125.319-1.361 224.845-103.37 226.774-228.682 1.378-89.578 37.532-193.265 168.993-265.748 0 0 387.95-214.4 61.5-658.45-.001.002 207.349 134.002 263.499 402.652z"/></g><g opacity=".3"><path fill="#231F20" d="M1537.918 1300.738c-152.55 41.5-228.65-20.75-262.7-67.649 29.4-15.5 48.95-21.65 48.95-21.65 96.701 99.899 213.75 89.299 213.75 89.299z"/></g><g opacity=".7"><path fill="#FFF" d="M1537.918 1300.738c-157.5-4.75-213.75-89.3-213.75-89.3l-.05-.05c-72.3-97.2-37.75-186.35-37.75-186.35 138.75-47.5 249.55 49.05 265.8 64.2.25.2.45.4.6.6.75.65 1.2 1.101 1.4 1.3-119.708-72.022-198.441-47.226-222.332-36.341-4.912 2.238-8.078 7.093-8.453 12.478-11.712 168.06 214.535 233.463 214.535 233.463z"/></g><g opacity=".3"><path fill="#231F20" d="M1796.369 1145.838s-20.9 43.4-23.85 86.5c0 0-40.35-72.05-2.15-165.7 21.4 44.6 26 79.2 26 79.2z"/></g><g opacity=".7"><path fill="#FFF" d="M2236.269 849.388c-297.25-6.101-463.75 382.95-463.75 382.95 6.15-47.4 23.85-86.5 23.85-86.5 29.25-86.2 103.75-175.9 148.25-224.25 27.851-30.25 59.851-56.5 95.8-76.5 83.4-46.45 146.25-41.3 191.351.05h.05c1.498 1.4 2.998 2.8 4.449 4.25z"/></g><g opacity=".3"><path fill="#231F20" d="M2276.719 1630.188c-3.15 9.5-5.051 14.1-5.051 14.1s-37.5-255.25-263.5-402.65c0 0 73-314.6 223.601-396.5h.05c1.5 1.4 3 2.8 4.45 4.25 0 0-80.95 143.2-101.3 200 0 0 92.4-13.9 78.75 54.4-9.311 46.414-18.943 70.938-24.161 81.89-2.095 4.396-1.182 9.561 2.208 13.057 17.573 18.123 64.226 79.418 23.553 188.154-.001-.001 67.249 137.849 61.4 243.299z"/></g><g opacity=".7"><path fill="#FFF" d="M1364.168 1236.438s-19.55 6.15-48.95 21.65c-37.877 19.988-92.186 55.497-141.907 113.3-3.815 4.435-5.286 10.579-3.553 16.167 6.241 20.116-.86 57.292-19.84 95.383-20.108 40.217-47.343 69.209-67.553 74.19-6.256 1.542-11.065 6.441-12.75 12.661-14.7 54.255-22.926 116.64-21.346 188.399 1 44.601-7.8 88.75-24.75 129.851-2.8 6.9-5.85 13.75-9.1 20.45-22.85 46.8-44.8 119.35-33.95 214.75 4 35.2 12.45 73.55 27 114.85 16.05 45.55 54.4 88.9 109.15 126.75-76.101-43.25-129.45-95.8-149.15-151.75-14.55-41.3-23-79.649-27-114.85-10.851-95.4 11.1-167.95 33.95-214.75 3.25-6.7 6.3-13.55 9.1-20.45 16.95-41.101 25.75-85.25 24.75-129.851-7-316.5 176.55-452.45 266.95-500.099 29.4-15.5 48.95-21.65 48.95-21.65.05.049 39.999 24.999 39.999 24.999z"/></g><g><path fill="#231F20" d="M1592.808 2496.059c-108.226 0-216.277-14.541-315.291-43.412-172.341-50.25-295.308-137.334-328.936-232.939-55.51-157.818-26.382-274.708 7.832-344.971 21.89-44.957 32.908-93.745 31.865-141.094-4.932-223.809 84.568-358.946 160.515-432.9 56.575-55.088 113.467-85.039 144.817-98.794-58.735-96.272-27.344-180.366-25.879-184.15 2.133-5.505 6.589-9.788 12.173-11.699 107.063-36.638 197.544 5.054 247.339 38.294-5.925-98.054 40.413-155.049 42.705-157.8 5.43-6.514 14.38-8.892 22.326-5.942 129.502 48.098 185.123 143.464 208.292 205.119 37.061-71.921 94.211-139.534 129.331-177.707 30.474-33.123 64.377-60.19 100.773-80.454 73.584-40.969 137.031-46.531 188.569-16.545 101.399 59.006 124.139 237.241 125.357 376.372 2.535 289.949-41.238 428.571-52.137 458.488 23.978 113.442 25.314 190.015 23.137 255.87-8.952 270.834-198.22 503.003-460.263 564.599-84.289 19.811-173.47 29.665-262.525 29.665zm-564.539-763.296c1.184 53.682-11.228 108.829-35.894 159.483-30.874 63.413-56.99 169.395-6.06 314.189 28.923 82.228 144.795 161.856 302.4 207.813 174.065 50.753 377.251 55.562 557.463 13.208 244.492-57.471 421.084-274.175 429.438-526.982 2.133-64.418.76-139.526-23.503-251.948-.862-4-.479-8.169 1.103-11.949.525-1.264 54.132-134.584 51.381-448.792-1.592-181.987-39.053-303.498-105.475-342.15-38.481-22.393-88.61-16.697-148.994 16.919-32.664 18.188-63.213 42.609-90.793 72.59-41.643 45.264-115.728 133.662-144.014 217.103-2.981 8.799-11.633 14.404-20.882 13.484-9.246-.901-16.655-8.052-17.883-17.261-.898-6.509-23.474-156.953-183.723-224.582-13.621 23.098-38.277 79.487-19.104 162.81 2.002 8.691-1.997 17.658-9.8 21.98-7.81 4.321-17.527 2.946-23.833-3.352-4.336-4.302-105.982-103.169-237.639-64.437-5.725 22.896-14.971 87.759 37.739 158.625 3.865 5.193 4.974 11.937 2.981 18.096-1.995 6.16-6.845 10.972-13.02 12.917-.747.237-78.984 25.762-154.81 100.195-101.283 99.421-150.765 234.687-147.078 402.041z"/></g><g><path fill="#231F20" d="M1340.569 1200.027l1.531 1.992c.564.767 1.307 1.604 1.989 2.422 1.334 1.648 2.741 3.337 4.244 4.99 2.842 3.372 6.13 6.55 9.287 9.771 6.562 6.292 13.352 12.502 20.677 18.157 14.563 11.399 30.404 21.553 47.404 30.007 4.229 2.156 8.668 3.843 12.999 5.872l6.545 2.976 6.754 2.458 13.598 5.029 13.986 4.126 7.038 2.185 7.171 1.628 14.465 3.428c9.723 2.17 19.621 3.403 29.646 5.576-4.978.869-9.997 1.599-15.047 2.266-5.047.569-10.151 1.677-15.244 1.794l-15.38.527-7.746.137-7.723-.447-15.533-1.143c-5.156-.642-10.285-1.558-15.441-2.434l-7.752-1.328-7.635-1.89c-5.074-1.345-10.223-2.556-15.248-4.167l-15.01-5.21c-5.006-1.785-9.755-4.187-14.666-6.277-4.943-2.039-9.588-4.683-14.338-7.166-4.772-2.449-9.319-5.3-13.859-8.193-4.637-2.747-8.996-5.935-13.34-9.163-4.425-3.105-8.559-6.675-12.72-10.178-4.034-3.708-8.11-7.317-11.938-11.396-1.937-1.973-3.887-3.987-5.732-6.194-.928-1.096-1.846-2.126-2.79-3.354-.954-1.221-1.784-2.214-3.027-3.958l32.835-22.843zM1567.98 1076.648c1.253 1.331 1.84 2.073 2.643 3.044.766.93 1.418 1.855 2.096 2.771 1.354 1.843 2.601 3.665 3.831 5.5 2.381 3.708 4.622 7.434 6.574 11.289 4.016 7.634 7.339 15.518 10.098 23.516 2.697 8.03 4.951 16.13 6.363 24.395 1.562 8.201 2.178 16.594 2.199 24.91l-15.249-19.011c-4.911-6.177-10.118-11.985-15.144-17.685-5.124-5.647-10.41-10.992-15.664-16.099-2.642-2.549-5.298-5.002-7.927-7.375-1.294-1.187-2.606-2.363-3.899-3.44l-1.909-1.572c-.545-.466-1.336-1.133-1.494-1.177l27.482-29.066zM1814.976 1153.193c-2.625 6.165-5.879 12.947-9.039 19.436l-9.868 19.736c-3.533 6.565-6.517 13.298-10.272 19.937-3.768 6.655-7.761 13.298-13.252 20.039-3.118-8.052-4.417-16.155-4.833-24.106-.424-7.966.219-15.779.798-23.623.747-7.805 1.78-15.579 3.255-23.25 1.544-7.734 3.248-15.098 6.026-22.908l37.185 14.739zM2242.613 861.992l-2.433 1.877-2.841 2.234-5.773 4.932c-3.887 3.232-7.558 7.078-11.419 10.491-7.467 7.339-14.89 14.78-21.845 22.81-7.309 7.629-13.842 16.113-20.665 24.271-3.491 4.008-6.46 8.508-9.71 12.744l-9.672 12.8c-24.975 34.863-46.59 72.427-65.846 111.265l-14.252 29.294-12.752 30.068-6.404 15.046-5.778 15.32-11.532 30.708c-7.438 20.596-13.055 41.794-20.646 62.478-6.885 20.923-15.01 41.548-28.591 61.423-1.949-11.729-2.243-23.22-1.918-34.619.386-11.384 1.415-22.676 3.134-33.816 2.156-11.042 5.034-21.917 7.713-32.847l4.063-16.392c1.34-5.471 2.653-10.952 4.395-16.318l9.81-32.4 4.945-16.211 5.895-15.911 11.848-31.841 13.488-31.27c18.846-41.318 40.551-81.704 67.333-119.097 6.931-9.194 13.558-18.589 20.947-27.466 7.515-8.794 14.688-17.82 22.835-26.16 7.84-8.545 16.363-16.577 24.988-24.531 4.523-3.86 8.857-7.737 13.67-11.409 4.867-3.794 9.182-7.111 15.426-11.15l21.587 33.677z"/><path fill="#231F20" d="M2252.082 1648.368c-55.173-265.864-252.297-388.403-254.282-389.611l20.713-34.219c8.705 5.262 213.884 132.125 272.734 415.706l-39.165 8.124z"/></g><g><path fill="#231F20" d="M1247.754 2124.828s45.861 173.049 193.718 201.978c147.857 28.929 203.875-115.313 169.757-201.978 0 0-193.892 66.174-216.78-109.809.001.001-12.068 127.366-146.695 109.809z"/><path fill="#231F20" d="M1478.544 2350.546c-13.176 0-26.843-1.357-40.913-4.111-158.32-30.981-207.207-208.921-209.211-216.484-1.707-6.44-.093-13.31 4.307-18.32 4.397-5.005 11.001-7.5 17.612-6.636 35.354 4.609 63.987-1.527 85.11-18.236 33.931-26.852 39.05-73.238 39.099-73.702 1.035-10.097 9.478-17.856 19.629-17.998h.276c10.032 0 18.532 7.407 19.832 17.383 5.371 41.303 21.567 70.654 48.14 87.23 55.842 34.834 141.516 6.504 142.375 6.221 10.103-3.418 21.135 1.686 25.041 11.611 22.371 56.831 10.091 130.02-29.86 177.988-30.118 36.158-72.337 55.054-121.437 55.054zm-202.018-204.091c19.036 47.002 68.975 141.191 168.787 160.723 65.999 12.91 103.828-13.145 123.931-37.285 26.653-31.998 37.531-80.196 28.569-120.635-33.545 7.855-102.715 17.836-156.39-15.543-20.854-12.964-37.073-30.883-48.546-53.555-7.72 13.164-18.153 26.436-32.225 37.661-22.974 18.325-51.177 27.906-84.126 28.634z"/></g><g><path fill="#FF5C9E" d="M1451.115 2140.251s-174.221 85.315-89.197 191.376c65.089 81.194 150.351-6.273 202.443-47.164 30.444-23.898 47.847-61.502 43.692-99.982-.208-1.924-.465-3.857-.778-5.8.001 0-11.517-31.324-156.16-38.43z"/><path fill="#231F20" d="M1608.054 2184.48c-.208-1.924-.466-3.857-.778-5.8 0 0-2.191-5.921-16.536-13.197-5.926 24.987-20.609 47.675-41.379 63.979-52.092 40.891-137.354 128.357-202.443 47.164-3.03-3.779-5.694-7.529-8.085-11.252-1.761 20.625 4.394 42.937 23.085 66.252 65.089 81.193 150.351-6.273 202.443-47.164 30.445-23.898 47.847-61.501 43.693-99.982z" opacity=".3"/><path fill="#231F20" d="M1423.73 2384.97c-3.101 0-6.199-.151-9.307-.474-25.852-2.65-48.767-16.23-68.11-40.361-24.045-29.994-32.561-61.655-25.311-94.105 16.951-75.855 117.063-125.654 121.316-127.74 3.036-1.484 6.395-2.172 9.778-2.012 137.354 6.748 167.942 35.161 173.95 51.499.445 1.212.77 2.456.975 3.731.368 2.284.673 4.564.918 6.83 4.768 44.15-14.864 89.313-51.23 117.857-5.713 4.482-11.834 9.545-18.289 14.877-36.03 29.766-84.604 69.898-134.69 69.898zm31.719-224.468c-26.924 14.312-85.481 53.613-95.422 98.315-4.507 20.265 1.216 39.991 17.498 60.298 12.568 15.68 25.974 24.053 40.984 25.592 36.64 3.818 81.624-33.36 114.436-60.469 6.729-5.563 13.11-10.83 19.067-15.509 25.425-19.956 39.266-51.122 36.224-81.47-7.228-5.287-36.849-21.517-132.787-26.757zm134.783 28.443zm-130.32-30.728z"/><path fill="#231F20" d="M1522.242 2157.437c-3.591 2.842-7.844 6.162-11.708 9.404-3.907 3.315-7.876 6.611-11.717 10.029-7.706 6.813-15.373 13.767-22.438 21.216-7.104 7.412-13.824 15.203-19.867 23.501-6.08 8.317-11.775 16.819-17.451 26.735-1.802-11.289.42-22.976 4.209-33.732l3.235-7.935c1.201-2.583 2.555-5.056 3.84-7.604 1.261-2.574 2.689-5.008 4.132-7.444 1.441-2.435 2.83-4.948 4.452-7.241 6.104-9.559 13.081-18.406 20.486-26.873 3.704-4.235 7.561-8.32 11.627-12.214 4.097-3.978 7.972-7.705 12.804-11.54l18.396 23.698z" opacity=".6"/></g><g><path fill="#231F20" d="M1416.199 1996.504c-.107.876-.419 3.069-.554 4.748-.173 1.8-.304 3.65-.388 5.506-.171 3.716-.191 7.469-.102 11.201.121 7.476 1.021 14.863 2.428 21.99 2.711 14.32 8.342 27.36 16.434 38.347 8.08 11.062 19.244 19.683 32.16 26.426 12.903 6.761 28.04 10.684 43.62 13.851 30.837 5.993 62.423 3.91 89.8-9.932 6.809-3.463 13.372-7.537 19.549-12.256 6.099-4.817 12.035-9.954 17.928-15.389 11.818-10.93 23.298-22.791 36.093-36.242.525 18.892-6.369 36.901-16.62 52.533-10.369 15.73-25.139 28.519-41.477 38.733-16.427 10.212-35.08 17.015-54.141 20.405-19.111 3.113-38.444 2.938-57.13.533-4.71-.509-9.333-1.287-13.918-2.215l-6.898-1.373-7.002-1.807c-9.339-2.385-18.624-5.759-27.702-9.893-18.131-8.313-35.304-21.152-47.931-37.897-12.876-16.569-20.591-36.431-24.173-56.058-1.744-9.865-2.512-19.76-2.401-29.572-.015-4.912.392-9.805.878-14.705.257-2.451.572-4.902.958-7.387.403-2.61.76-4.69 1.5-8.052l39.089 8.505z"/></g><g><path fill="#231F20" d="M1416.62 2003.352c-.246 4.85-.614 8.309-1.095 12.337-.518 3.875-1.02 7.739-1.809 11.543-1.49 7.627-3.347 15.19-5.726 22.673-4.938 14.866-11.382 29.682-20.965 43.172-4.763 6.736-10.115 13.208-16.223 19.106-6.129 5.889-13.043 11.052-20.408 15.493-14.904 8.605-31.667 13.908-48.094 15.024l-6.124.43-5.757.065c-3.817.104-7.674.027-11.562-.199-7.723-.252-15.571-1.185-23.395-2.559-7.84-1.424-15.658-3.6-23.291-6.689-7.638-2.957-15.081-6.907-21.905-11.832-13.611-9.756-25.068-23.42-30.232-38.942-5.062-15.427-4.816-32.19 2.686-46.257 6.878 14.037 13.044 25.559 19.886 35.605 3.412 4.99 6.919 9.594 10.894 13.676 4 4.056 8.54 7.459 13.485 10.24 4.925 2.805 10.282 4.975 15.976 6.484 2.762.898 5.771 1.342 8.654 1.986 3.004.391 5.945.945 9.001 1.221 6.099.574 12.304.872 18.648.57 3.147-.05 6.32-.228 9.527-.574l4.782-.413 4.367-.671c11.573-1.764 22.089-5.615 31.27-11.568 9.028-6.154 16.999-14.066 23.433-23.811 6.415-9.692 11.69-20.773 15.596-32.576 2.009-5.883 3.749-11.94 5.133-18.083.692-3.071 1.376-6.143 1.96-9.214.56-2.924 1.089-6.447 1.357-8.616l39.931 2.379z"/></g><g><path fill="#FA9B27" d="M2184.519 1351.038c-3.601 15.05-9.55 31.1-18.351 48.2 0 0-71.049-98.7-158-157.6l37.851-119.399s30.499-16.95 61.351-26.351c20.049-6.05 40.199-9 52.249-2.05 30.501 17.7-24.649 103.95-24.649 103.95s73.598 54.5 49.549 153.25z"/></g><g opacity=".3"><path fill="#231F20" d="M2184.519 1351.038c-3.601 15.05-9.55 31.1-18.351 48.2 0 0-71.049-98.7-158-157.6l37.851-119.399s30.499-16.95 61.351-26.351c-35.401 52.25-82.802 164.6 77.149 255.15z"/></g><g><path fill="#231F20" d="M2166.164 1414.223c-4.799 0-9.338-2.302-12.17-6.233-.695-.966-70.578-97.287-154.233-153.914-5.5-3.723-7.898-10.62-5.891-16.953l37.839-119.424c1.157-3.655 3.672-6.729 7.025-8.586 15.111-8.379 92.32-49.106 128.377-28.235 7.818 4.524 13.15 11.851 15.418 21.184 6.702 27.573-15.752 71.367-28.311 92.917 25.102 24.9 83.045 99.097 25.281 211.121-2.394 4.637-7.021 7.696-12.225 8.083-.37.028-.741.04-1.11.04zm-140.361-178.564c60.929 43.604 112.376 103.523 137.021 134.517 39.082-101.692-33.51-157.864-36.836-160.362-6.27-4.712-7.895-13.496-3.674-20.105 15.234-23.853 34.943-64.616 31.063-80.563-.439-1.809-.955-2.107-1.295-2.305-13.62-7.883-57.961 6.855-93.605 25.698l-32.674 103.12z"/></g><g><path fill="#FA9B27" d="M2296.269 2360.738l-.05-.051c-2.4-1.25-80.301-42.5-168.5-67.75-29-8.3-59.1-14.899-88-17.8 0 0-44.7 15.899-78.25-15.601 0 0-103.7 46.201-124.05-63.449-.4-2.2-.8-4.5-1.2-6.85-15.6-95-9.149-304.65 255.25-335.5 28.25-3.3 56.6-4.15 84.65-2.601 95.799 5.15 189 37.55 269.199 92.351 95 64.95 194.35 172.1 237.5 320.9 62.7 216.301-386.549 96.351-386.549 96.351z"/></g><g><path fill="#FFF" d="M2266.719 2172.788c-23.75 52.95-76 94.55-139 120.149-29-8.3-59.1-14.899-88-17.8 0 0-44.7 15.899-78.25-15.601 0 0-103.7 46.201-124.05-63.449-16.95-91.35-16.9-310.75 254.05-342.35.282-.033.564-.066.848-.099 58.506-6.733 116.302 19.573 149.877 67.958 39.294 56.633 72.64 144.033 24.525 251.192z"/></g><g opacity=".3"><path fill="#231F20" d="M2296.219 2360.688c-2.4-1.25-80.301-42.5-168.5-67.75-29-8.3-59.1-14.899-88-17.8 0 0-44.7 15.899-78.25-15.601 0 0-103.7 46.201-124.05-63.449-.4-2.2-.8-4.5-1.2-6.85 8.585 5.675 20.157 12.361 32.957 16.887 13.083 4.625 26.804-4.271 28.8-18.004 1.435-9.866 5.153-22.445 13.594-36.883 0 0-.55 35.5 15.549 58 10.032 14.063 28.852 24.551 51.896 24.434 23.197-.119 40.958-20.406 40.129-43.588-.548-15.354 1.669-34.428 11.875-52.096 0 0 8.05 63.199 46.601 86.25 0 0 159.1 11.25 100.199-209.5 0 0 133.824 90.832 60.039 221.215-15.285 27.008-9.182 61.135 13.795 81.994 13.018 11.819 28.176 26.158 44.566 42.741z"/></g><g opacity=".7"><path fill="#FFF" d="M2111.469 1913.738c28.25-3.3 56.6-4.15 84.65-2.601 95.799 5.15 189 37.55 269.199 92.351 83.63 57.176 170.61 147.072 219.675 269.279-.652-2.746-1.345-5.518-2.175-8.379-43.15-148.801-142.5-255.95-237.5-320.9-80.199-54.8-173.4-87.2-269.199-92.351-28.051-1.55-56.4-.7-84.65 2.601-264.4 30.85-270.851 240.5-255.25 335.5.4 2.35.8 4.649 1.2 6.85 3.578 19.275 9.766 33.651 17.478 44.393-13.667-98.534.017-296.808 256.572-326.743z"/></g><g><path fill="#231F20" d="M2295.668 2360.822c-22.373-6.039-44.004-12.797-65.537-19.561-21.52-6.74-42.793-13.732-64.266-19.785-10.732-2.988-21.411-6.086-32.192-8.63-10.69-2.937-21.485-5.134-32.194-7.637-21.479-4.57-42.916-8.054-64.172-10.737l-.007-.002 8.691-1.038c-3.052 1.013-4.755 1.436-7.001 1.989-2.109.514-4.201.943-6.283 1.307-4.17.762-8.357 1.226-12.574 1.541-8.436.554-17.061.131-25.662-1.406-8.599-1.447-17.179-4.275-25.167-8.309-8.151-3.82-15.276-9.387-21.897-15.225l-.02-.015 21.822 3.745c-2.76 1.213-4.446 1.848-6.611 2.656-2.052.76-4.086 1.455-6.134 2.109-4.084 1.328-8.213 2.439-12.398 3.43-8.375 1.934-17.002 3.258-25.933 3.672-17.681.836-37.479-2.24-54.743-12.639-17.392-10.22-29.798-26.789-37.11-43.223-7.688-16.506-10.706-33.853-13.033-49.082-4.605-31.377-5.558-63.137-2.559-94.93 1.467-15.886 4.088-31.77 8.069-47.414 3.982-15.63 8.893-31.159 15.584-46.082 13.015-29.934 31.86-57.844 55.569-80.776 2.853-2.983 5.924-5.72 9.062-8.381 3.117-2.678 6.189-5.427 9.395-7.991 6.629-4.807 12.981-10.081 19.982-14.275l10.32-6.592 10.684-5.856c7.044-4.107 14.492-7.198 21.798-10.645 29.524-13.032 60.462-21.357 91.441-26.465 30.953-5.093 62.258-7.224 93.506-6.535 62.496 1.323 124.508 13.933 182.494 36.398 28.957 11.345 56.91 25.117 83.513 41.064 13.317 7.908 26.271 16.58 38.836 25.449 12.474 8.909 24.7 18.174 36.649 27.803 23.868 19.282 46.72 39.937 67.864 62.332 21.063 22.461 40.234 46.8 56.834 72.78 8.454 12.881 15.78 26.504 22.7 40.225l9.785 20.877c2.908 7.121 5.498 14.373 8.237 21.514 10.29 28.875 16.976 58.879 19.442 88.982-10.857-28.265-23.01-55.286-36.985-81.119l-10.933-19.069-11.688-18.538c-3.852-6.179-8.393-11.947-12.48-17.949-3.982-6.074-8.568-11.755-12.988-17.519-35.413-46.028-76.8-87.415-123.141-122.869-11.561-8.879-23.395-17.422-35.467-25.625-12.074-8.098-24.185-15.806-36.771-22.888-25.063-14.238-51.269-26.389-78.267-36.245-53.888-19.976-111.079-30.726-168.275-31.119-28.586-.225-57.182 2.212-85.275 6.873-28.012 4.756-55.279 12.356-80.467 23.657-25.1 11.353-48.408 26.042-67.561 44.929-19.389 18.635-34.769 41.16-45.714 66.036-21.712 49.89-26.899 108.064-19.711 163.845 1.936 14.284 4.144 26.813 9.015 37.598 4.685 10.815 11.189 19.245 19.661 24.454 8.445 5.217 19.302 7.857 31.411 7.666 6.026-.089 12.278-.826 18.519-2.064 3.115-.637 6.245-1.367 9.303-2.263 1.53-.437 3.052-.905 4.524-1.399 1.359-.441 3.18-1.115 3.856-1.376 7.597-2.931 15.833-1.277 21.662 3.603l.163.143.011.01c3.888 3.252 7.75 6.498 12.31 8.529 4.429 2.249 9.222 3.887 14.369 4.725 5.105.916 10.496 1.226 15.963.864 2.73-.215 5.477-.505 8.161-1.001 1.353-.234 2.671-.503 3.947-.815 1.142-.254 2.804-.749 3.061-.823l1.922-.544c2.245-.635 4.595-.769 6.771-.493h.009c23.779 2.439 46.907 7.463 69.408 13.794 22.389 6.687 44.231 14.593 65.536 23.513 21.183 9.222 42.066 18.883 62.117 30.162 20.002 11.325 39.467 23.717 57.24 38.675z"/></g><g><path fill="#231F20" d="M1948.719 2274.465c-.981-.876-1.457-1.403-2.051-2.009-.605-.61-1.116-1.179-1.626-1.751-1.051-1.14-2.041-2.299-2.953-3.451-1.92-2.293-3.606-4.646-5.345-6.969-3.344-4.699-6.35-9.555-9.055-14.519-5.458-9.892-9.848-20.218-12.814-30.869-3.003-10.603-5.284-21.284-5.729-32.058-.763-10.703.39-21.412 2.416-31.614 1.802 5.003 3.13 9.917 4.895 14.678 1.877 4.746 3.49 9.429 5.659 13.906 3.846 9.058 8.558 17.547 13.848 25.42 5.305 7.871 11.365 15.063 17.79 21.597 3.224 3.262 6.646 6.262 10.004 9.172 1.735 1.37 3.429 2.803 5.168 4.024.865.656 1.72 1.235 2.543 1.802.418.293.835.588 1.198.795.364.225.836.54.844.455l-24.792 31.391z"/></g><g><path fill="#231F20" d="M2030.33 2256.711l2.051-1.172c.836-.527 1.68-1.02 2.514-1.596 1.675-1.094 3.33-2.283 4.878-3.521 3.12-2.463 5.964-5.104 8.292-7.795 2.27-2.705 3.988-5.415 5.205-7.939 1.074-2.531 1.475-4.824 1.688-7.088v-.002l.631-3.379c2.014-10.771 12.377-17.871 23.148-15.857 2.461.459 4.789 1.396 6.802 2.635.759.471 2.45 1.428 3.765 2.137l4.336 2.244c2.938 1.474 5.975 2.787 8.985 4.13 6.063 2.588 12.257 4.749 18.421 6.431 12.316 3.43 24.649 4.565 35.455 2.605 10.791-2.02 20.137-7.174 27.837-15.973 2.035-2.035 3.667-4.631 5.518-6.996 1.53-2.708 3.398-5.135 4.729-8.096l2.178-4.287c.662-1.482 1.176-3.074 1.801-4.598l3.668-9.258c3.838-12.684 6.743-25.967 6.708-39.705.564-6.84-.213-13.75-.522-20.705-.319-3.469-.949-6.924-1.402-10.405l-.749-5.222-1.142-5.176c-2.73-13.914-7.508-27.451-12.207-41.191-4.683-13.814-9.885-27.581-15.105-42.178 12.477 9.467 22.011 21.828 30.362 34.848 8.179 13.172 14.382 27.568 19.083 42.588 9.933 29.742 12.918 63.316 5.178 95.693-4.301 15.859-9.721 32.137-21.202 46.658-5.533 7.215-12.312 14.033-20.411 19.236-8.025 5.264-17.053 9.074-26.21 11.293-18.456 4.512-36.692 2.85-53.218-1.003-8.311-1.979-16.283-4.648-24.027-7.733-3.86-1.573-7.658-3.272-11.407-5.118l-5.616-2.884c-1.967-1.068-3.545-1.916-5.971-3.396l30.58-16.599-.002.012c-.297 7.957-2.113 15.747-5.14 22.609-3.104 6.746-7.065 12.61-11.39 17.715-4.357 5.047-9.063 9.355-13.959 13.221-2.451 1.943-4.951 3.74-7.549 5.444-1.275.866-2.627 1.683-3.959 2.505-1.467.859-2.555 1.519-4.625 2.59l-18-35.722z"/></g><g><path fill="#231F20" d="M2063.236 2244.172c-1.191-.944-1.498-1.303-2.162-1.901-.614-.563-1.037-1.032-1.561-1.553-1.042-1.022-1.879-2.028-2.76-3.052-1.72-2.046-3.322-4.067-4.793-6.138-3.024-4.089-5.569-8.345-7.861-12.663-4.584-8.639-7.957-17.604-10.514-26.607-1.17-4.535-2.277-9.045-2.98-13.604-.911-4.502-1.364-9.064-1.707-13.596-.408-4.512-.124-9.113.014-13.599.402-4.534 1.154-9.056 2.114-13.493 2.44 3.957 4.47 7.875 6.522 11.706 2.205 3.784 3.98 7.604 6.114 11.237 3.956 7.363 8.158 14.349 12.771 20.84 4.691 6.432 9.674 12.405 14.974 17.674 2.631 2.64 5.36 5.107 8.063 7.336 1.342 1.133 2.734 2.156 4.066 3.086l1.933 1.292c.286.171.642.437.862.534.168.068.674.4.342.088l-23.437 32.413z"/></g><g><ellipse cx="1208.784" cy="1786.55" fill="#231F20" rx="80.851" ry="106.176" transform="matrix(-.9999 .0101 -.0101 -.9999 2435.5791 3560.7803)"/><ellipse cx="1228.37" cy="1766.798" fill="#FFF" rx="23.615" ry="31.013" transform="matrix(-.9999 .0101 -.0101 -.9999 2474.541 3521.0864)"/><g><path fill="#231F20" d="M1824.049 1715.125c-15.822 4.866-31.866 10.591-46.732 17.151-14.96 6.606-29.092 14.224-42.224 22.822-6.696 4.138-12.747 9.033-18.987 13.618l-8.718 7.607c-1.412 1.306-2.979 2.444-4.327 3.809l-4.018 4.124c-11.218 10.54-20.047 23.162-28.744 35.93l-28.28-30.913c1.454-.647 2.366-.986 3.36-1.377 1.019-.408 1.979-.764 2.912-1.077 1.901-.647 3.804-1.296 5.659-1.816 3.738-1.167 7.461-2.065 11.182-2.983 7.442-1.75 14.964-2.847 22.481-3.645 15.047-1.531 30.26-1.07 45.087 1.411 14.785 2.529 29.31 6.624 42.558 13.242 13.51 5.928 25.491 14.634 36.332 23.887 3.172 2.708 3.548 7.473.841 10.645-2.013 2.361-5.164 3.171-7.952 2.322l-.864-.266c-6.419-1.97-12.37-4.541-18.587-6.287-6.269-1.626-12.271-3.591-18.522-4.622-12.311-2.583-24.682-3.662-36.892-3.599-12.201-.11-24.332 1.228-36.144 3.655-2.959.557-5.869 1.362-8.794 2.012l-8.617 2.437c-2.814.92-5.644 1.802-8.322 2.861-1.386.488-2.659 1.04-3.939 1.577-.662.264-1.288.515-1.831.771l-1.329.605-.521.237c-10.982 4.993-23.934.139-28.928-10.842-3.073-6.758-2.348-14.373 1.169-20.308 9.912-16.472 20.954-32.715 35.311-45.861 6.628-7.124 14.678-12.62 22.204-18.631 8.137-5.154 16.074-10.618 24.783-14.58 17.057-8.538 35.117-14.573 53.473-17.82 18.462-3.145 36.76-4.099 55.632-1.089 4.143.662 6.965 4.556 6.304 8.699-.471 2.954-2.585 5.234-5.26 6.065l-.756.229z"/></g></g><g><path fill="#231F20" d="M1369.053 2019.158c-33.757-7.666-85.182-29.181-78.454-88.863 1.041-9.234 6.981-17.196 15.419-21.088 28.957-13.356 103.373-38.232 185.708 8.982 8.811 5.053 13.883 14.797 13.216 24.932-1.629 24.732-13.834 68.657-78.519 78.294-19.068 2.843-38.571 2.011-57.37-2.257z"/><ellipse cx="1385.306" cy="1922.821" fill="#FFF" rx="38.374" ry="8.223"/></g></g></svg>